<?xml version="1.0" encoding="iso-8859-1"?>
<!-- Generator: Adobe Illustrator 19.0.0, SVG Export Plug-In . SVG Version: 6.00 Build 0)  -->
<svg version="1.1" id="Capa_1" xmlns="http://www.w3.org/2000/svg" xmlns:xlink="http://www.w3.org/1999/xlink" x="0px" y="0px"
	 viewBox="0 0 512 512" style="enable-background:new 0 0 512 512;" xml:space="preserve">
<g>
	<g>
		<path d="M471.032,347.64l8.154-14.124c5.021-8.695,7.132-18.517,6.212-28.314c0.136-0.657,0.208-1.337,0.208-2.035v-74.631
			c0-61.048-23.823-118.441-67.08-161.607C375.273,23.77,317.77,0,256.605,0S137.937,23.77,94.686,66.929
			c-43.257,43.166-67.08,100.56-67.08,161.607v80.118c-0.182,8.637,1.989,17.188,6.42,24.861l7.876,13.641
			c-8.02,5.086-13.759,12.875-16.232,22.105c-2.612,9.749-1.272,19.932,3.774,28.673l10.595,18.351
			c6.991,12.108,19.718,18.886,32.786,18.885c5.901,0,11.867-1.401,17.41-4.297l1.916,3.319
			c6.394,11.074,16.718,18.996,29.07,22.307c4.124,1.104,8.31,1.651,12.469,1.651c8.295,0,16.482-2.176,23.859-6.435l13.856-8
			c11.074-6.394,18.996-16.718,22.307-29.07c3.31-12.352,1.611-25.254-4.783-36.328l-58.125-100.676
			c-6.394-11.074-16.718-18.996-29.07-22.307c-3.351-0.897-6.743-1.413-10.128-1.58V229c0-72.709,48.662-137.81,118.337-158.312
			c5.298-1.56,8.329-7.118,6.771-12.417c-1.56-5.298-7.117-8.327-12.417-6.771c-37.538,11.047-71.313,34.381-95.104,65.705
			C84.603,149.583,71.605,188.24,71.605,229v26.362c0,0.573,0.059,1.132,0.152,1.679c-2.17,0.862-4.293,1.887-6.352,3.076l-13.856,8
			c-1.364,0.787-2.678,1.635-3.943,2.538v-42.119c0-114.987,93.757-208.536,209-208.536s209,93.549,209,208.536v42.119
			c-1.265-0.903-2.58-1.751-3.943-2.538l-13.856-8c-2.059-1.189-4.182-2.214-6.352-3.076c0.093-0.547,0.152-1.105,0.152-1.679V229
			c0-41.195-13.25-80.184-38.317-112.75c-24.271-31.532-58.631-54.769-96.748-65.431c-5.312-1.485-10.836,1.618-12.323,6.938
			c-1.488,5.318,1.617,10.836,6.937,12.324C372.074,89.917,421.605,155.268,421.605,229v24.753
			c-3.385,0.167-6.776,0.683-10.128,1.581c-12.353,3.311-22.677,11.232-29.07,22.307l-58.125,100.676
			c-6.395,11.074-8.093,23.977-4.783,36.328c3.311,12.353,11.232,22.677,22.307,29.07l13.856,8
			c7.377,4.26,15.563,6.436,23.859,6.435c4.158,0,8.345-0.547,12.469-1.651c12.353-3.311,22.677-11.232,29.07-22.307l1.694-2.935
			c4.997,2.437,10.388,3.711,15.851,3.798V457.5c0,19.023-15.477,34.5-34.5,34.5h-111.11v-28c0-19.851-16.149-36-36-36
			s-36,16.149-36,36v38c0,5.522,4.478,10,10,10h173.11c30.052,0,54.5-24.448,54.5-54.5v-27.761
			c5.495-3.263,10.097-7.888,13.38-13.574l10.596-18.351C492.545,380.556,487.293,358.632,471.032,347.64z M61.549,285.438l13.856-8
			c4.379-2.528,9.164-3.729,13.891-3.729c9.641,0,19.03,5.001,24.188,13.933l58.125,100.676
			c7.686,13.311,3.108,30.393-10.203,38.078l-13.856,8c-13.312,7.685-30.393,3.107-38.078-10.203L51.346,323.516
			C43.66,310.205,48.237,293.123,61.549,285.438z M51.92,364.511l28.302,49.02c-3.773,1.752-8,2.132-12.064,1.04
			c-4.589-1.229-8.425-4.172-10.8-8.286l-10.595-18.351c-2.375-4.114-3.006-8.907-1.776-13.496
			C46.077,370.371,48.516,366.902,51.92,364.511z M272.996,492h-32v-28c0-8.822,7.178-16,16-16c8.822,0,16,7.178,16,16V492z
			 M403.741,424.191c-7.685,13.311-24.769,17.887-38.079,10.204l-13.856-8c-13.312-7.686-17.889-24.768-10.203-38.078
			l58.125-100.676c5.157-8.933,14.546-13.933,24.188-13.933c4.726,0,9.513,1.202,13.891,3.729l13.856,8
			c13.312,7.686,17.889,24.768,10.203,38.078L403.741,424.191z M465.262,387.814l-10.596,18.352
			c-2.375,4.113-6.21,7.057-10.799,8.286c-3.707,0.992-7.542,0.751-11.05-0.623l28.155-48.766
			C467.705,370.459,469.704,380.117,465.262,387.814z"/>
	</g>
</g>
<g>
	<g>
		<path d="M256.605,44c-0.482,0-0.957,0.034-1.421,0.101c-5.503,0.731-8.745,5.402-8.748,9.9
			c-0.002,4.869,3.764,9.944,10.068,10.007c0.035,0.001,0.069,0.001,0.103,0.001c0.337,0,0.669-0.017,0.996-0.049
			c5.122-0.467,9.194-4.779,9.171-10.005C266.749,48.45,262.111,44,256.605,44z"/>
	</g>
</g>
<g>
	<g>
		<path d="M206.678,310.496h-0.78c-5.522,0-10,4.478-10,10c0,5.522,4.478,10,10,10h0.78c5.522,0,10-4.478,10-10
			C216.678,314.974,212.2,310.496,206.678,310.496z"/>
	</g>
</g>
<g>
	<g>
		<path d="M256.996,310.496h-0.779c-5.522,0-10,4.478-10,10c0,5.522,4.477,10,10,10h0.779c5.522,0,10-4.478,10-10
			C266.996,314.974,262.517,310.496,256.996,310.496z"/>
	</g>
</g>
<g>
	<g>
		<path d="M307.314,310.496h-0.78c-5.522,0-10,4.478-10,10c0,5.522,4.478,10,10,10h0.78c5.522,0,10-4.478,10-10
			C317.314,314.974,312.835,310.496,307.314,310.496z"/>
	</g>
</g>
<g>
</g>
<g>
</g>
<g>
</g>
<g>
</g>
<g>
</g>
<g>
</g>
<g>
</g>
<g>
</g>
<g>
</g>
<g>
</g>
<g>
</g>
<g>
</g>
<g>
</g>
<g>
</g>
<g>
</g>
</svg>
