<?xml version="1.0" encoding="iso-8859-1"?>
<!-- Generator: Adobe Illustrator 19.0.0, SVG Export Plug-In . SVG Version: 6.00 Build 0)  -->
<svg version="1.1" id="Capa_1" xmlns="http://www.w3.org/2000/svg" xmlns:xlink="http://www.w3.org/1999/xlink" x="0px" y="0px"
	 viewBox="0 0 472 472" style="enable-background:new 0 0 472 472;" xml:space="preserve">
<g>
	<g>
		<path d="M236,0C112.288,0,12,100.288,12,224v88c0,4.418,3.582,8,8,8h24.408C46.37,333.741,58.119,343.961,72,344h4.8
			c4.396,21.65,25.51,35.636,47.16,31.24c18.657-3.789,32.059-20.202,32.04-39.24V224c0.022-22.091-17.868-40.018-39.96-40.04
			C97.002,183.941,80.589,197.343,76.8,216H72c-13.881,0.039-25.63,10.259-27.592,24H28v-16
			c-0.016-56.557,23.071-110.667,63.912-149.792c15.234,11.15,35.829,11.531,51.464,0.952C170.817,56.998,203.097,47.533,236,48
			c32.908-0.455,65.188,9.024,92.624,27.2c15.669,10.521,36.234,10.164,51.528-0.896C420.943,113.418,444.004,167.486,444,224v16
			h-16.408c-1.962-13.741-13.711-23.961-27.592-24h-4.8c-4.396-21.65-25.51-35.636-47.16-31.24
			c-18.658,3.788-32.059,20.202-32.04,39.24v112c-0.022,22.091,17.868,40.018,39.96,40.04c19.038,0.019,35.452-13.383,39.24-32.04
			h4.8c13.881-0.039,25.63-10.259,27.592-24h16C439.345,387.381,383.514,439.889,316,440h-41.472
			c-3.378-9.555-12.394-15.958-22.528-16h-32c-13.255,0-24,10.745-24,24s10.745,24,24,24h32c10.134-0.042,19.15-6.445,22.528-16H316
			c79.491-0.093,143.907-64.509,144-144v-88C460,100.288,359.712,0,236,0z M92,224c0-13.255,10.745-24,24-24s24,10.745,24,24v112
			c0,13.255-10.745,24-24,24s-24-10.745-24-24V224z M60,244c0-6.627,5.373-12,12-12h4v96h-4c-6.627,0-12-5.373-12-12V244z M44,256
			v48H28v-48H44z M337.584,61.92C307.5,41.963,272.099,31.536,236,32c-36.102-0.474-71.509,9.944-101.6,29.896
			c-9.02,6.043-20.661,6.537-30.16,1.28c76.567-62.901,186.921-62.901,263.488,0l0.016,0.024
			C358.245,68.457,346.604,67.963,337.584,61.92z M380,336c0,13.255-10.745,24-24,24s-24-10.745-24-24V224c0-13.255,10.745-24,24-24
			s24,10.745,24,24V336z M412,316c0,6.627-5.373,12-12,12h-4v-96h4c6.627,0,12,5.373,12,12V316z M252,456h-32c-4.418,0-8-3.582-8-8
			s3.582-8,8-8h32c4.418,0,8,3.582,8,8S256.418,456,252,456z M444,304h-16v-48h16V304z"/>
	</g>
</g>
<g>
</g>
<g>
</g>
<g>
</g>
<g>
</g>
<g>
</g>
<g>
</g>
<g>
</g>
<g>
</g>
<g>
</g>
<g>
</g>
<g>
</g>
<g>
</g>
<g>
</g>
<g>
</g>
<g>
</g>
</svg>
