<svg id="Capa_1" enable-background="new 0 0 512.008 512.008" height="512" viewBox="0 0 512.008 512.008" width="512" xmlns="http://www.w3.org/2000/svg"><g><path d="m511.33 141.015-13.388-54.221c-4.55-18.431-19.521-32.735-38.141-36.442l-62.404-12.424c-46.454-9.249-94.025-13.939-141.394-13.939-44.786 0-89.812 4.197-133.826 12.474-4.071.765-6.751 4.686-5.985 8.757.766 4.07 4.692 6.755 8.757 5.984 43.104-8.105 87.196-12.215 131.055-12.215 46.387 0 92.973 4.592 138.464 13.65l62.405 12.424c12.939 2.576 23.345 12.518 26.507 25.327l11.569 46.854-118.953-22.603c-3.009-5.807-9.042-9.66-15.879-9.66h-10.421v-3.534c0-8.723-7.097-15.82-15.819-15.82h-25.15c-8.724 0-15.82 7.097-15.82 15.82v3.534h-73.805v-3.534c0-8.723-7.097-15.82-15.82-15.82h-25.15c-8.723 0-15.819 7.097-15.819 15.82v3.534h-10.421c-6.837 0-12.87 3.854-15.879 9.66l-118.954 22.603 11.569-46.854c3.162-12.81 13.567-22.75 26.508-25.327l35.412-7.051c4.062-.809 6.699-4.758 5.891-8.82-.809-4.062-4.759-6.703-8.82-5.891l-35.411 7.051c-18.62 3.707-33.592 18.011-38.142 36.442l-13.388 54.22c-1.123 4.545-.847 9.265.797 13.649l9.366 24.974c3.435 9.163 12.114 14.996 21.591 14.995 1.43 0 2.88-.133 4.331-.408l87.276-16.504c9.361-1.77 16.776-9.261 18.45-18.642l6.546-36.708c.247-1.385 1.448-2.391 2.855-2.391h10.421v59.675h-8.128c-9.458 0-17.869 5.662-21.428 14.423l-75.858 186.71c-1.13 2.777-1.702 5.707-1.702 8.708v75.393c0 12.753 10.376 23.129 23.129 23.129h200.616c4.143 0 7.5-3.358 7.5-7.5s-3.357-7.5-7.5-7.5h-200.615c-4.482 0-8.129-3.646-8.129-8.129v-75.393c0-1.055.201-2.083.598-3.06l75.859-186.713c1.251-3.079 4.207-5.069 7.531-5.069h203.641c3.324 0 6.28 1.99 7.531 5.069l27.968 68.837c1.559 3.836 5.931 5.686 9.771 4.125 3.837-1.559 5.685-5.934 4.125-9.771l-27.968-68.837c-3.559-8.762-11.97-14.423-21.428-14.423h-8.128v-59.675h10.421c1.407 0 2.608 1.005 2.855 2.391l6.546 36.708c1.674 9.38 9.089 16.872 18.45 18.642l87.276 16.505c1.451.274 2.9.407 4.331.407 9.477 0 18.156-5.833 21.591-14.995l9.366-24.975c1.645-4.381 1.921-9.101.798-13.646zm-390.078 21.967-87.276 16.504c-3.878.739-7.703-1.417-9.09-5.115l-8.173-21.793 115.616-21.969-4.607 25.835c-.587 3.29-3.187 5.917-6.47 6.538zm171.655-43.001v16.019c0 .452-.368.82-.82.82h-72.164c-.452 0-.82-.368-.82-.82v-16.02h73.804zm-115.595 59.675v-78.208c0-.452.367-.82.819-.82h25.15c.452 0 .82.368.82.82v34.552c0 8.723 7.097 15.82 15.82 15.82h72.164c8.724 0 15.82-7.097 15.82-15.82v-34.553c0-.452.368-.82.82-.82h25.15c.452 0 .819.368.819.82v78.208h-157.382zm300.721-.169-87.276-16.505c-3.283-.621-5.883-3.248-6.47-6.537l-4.607-25.836 115.616 21.969-8.173 21.794c-1.386 3.697-5.209 5.852-9.09 5.115z"/><path d="m420.37 295.283c-1.56-3.836-5.933-5.688-9.771-4.125-3.837 1.559-5.685 5.934-4.125 9.771l34.742 85.511c.396.974.597 2.002.597 3.057v75.393c0 4.482-3.646 8.129-8.129 8.129h-119.743c-4.143 0-7.5 3.358-7.5 7.5s3.357 7.5 7.5 7.5h119.743c12.753 0 23.129-10.375 23.129-23.129v-75.393c0-3.001-.572-5.931-1.701-8.706z"/><path d="m256.004 451.037c64.624 0 117.2-52.576 117.2-117.2s-52.576-117.2-117.2-117.2c-47.962 0-90.604 28.714-108.639 73.153-1.558 3.838.291 8.212 4.129 9.77 3.84 1.56 8.213-.292 9.77-4.129 15.728-38.753 52.915-63.793 94.74-63.793 56.354 0 102.2 45.847 102.2 102.2 0 56.354-45.847 102.2-102.2 102.2s-102.2-45.847-102.2-102.2c0-2.171.069-4.375.207-6.55.261-4.134-2.879-7.696-7.013-7.958-4.153-.256-7.696 2.88-7.958 7.013-.156 2.488-.236 5.009-.236 7.495 0 64.624 52.576 117.199 117.2 117.199z"/><path d="m256.004 359.621c14.217 0 25.783-11.566 25.783-25.784 0-14.217-11.566-25.783-25.783-25.783s-25.783 11.566-25.783 25.783c0 14.218 11.566 25.784 25.783 25.784zm0-36.567c5.946 0 10.783 4.837 10.783 10.783s-4.837 10.784-10.783 10.784-10.783-4.837-10.783-10.784c0-5.946 4.837-10.783 10.783-10.783z"/><path d="m256.004 292.234c12.201 0 22.127-9.926 22.127-22.126s-9.926-22.127-22.127-22.127-22.127 9.926-22.127 22.127 9.926 22.126 22.127 22.126zm0-29.254c3.93 0 7.127 3.197 7.127 7.127s-3.197 7.126-7.127 7.126-7.127-3.197-7.127-7.126 3.198-7.127 7.127-7.127z"/><path d="m200.814 324.099c12.201 0 22.127-9.926 22.127-22.126s-9.926-22.127-22.127-22.127-22.127 9.926-22.127 22.127 9.926 22.126 22.127 22.126zm0-29.254c3.93 0 7.127 3.197 7.127 7.127s-3.197 7.126-7.127 7.126-7.127-3.197-7.127-7.126 3.197-7.127 7.127-7.127z"/><path d="m200.814 387.829c12.201 0 22.127-9.926 22.127-22.126s-9.926-22.127-22.127-22.127-22.127 9.926-22.127 22.127 9.926 22.126 22.127 22.126zm0-29.253c3.93 0 7.127 3.197 7.127 7.127s-3.197 7.126-7.127 7.126-7.127-3.197-7.127-7.126 3.197-7.127 7.127-7.127z"/><path d="m256.004 419.695c12.201 0 22.127-9.926 22.127-22.126s-9.926-22.127-22.127-22.127-22.127 9.926-22.127 22.127 9.926 22.126 22.127 22.126zm0-29.254c3.93 0 7.127 3.197 7.127 7.127s-3.197 7.126-7.127 7.126-7.127-3.197-7.127-7.126 3.198-7.127 7.127-7.127z"/><path d="m311.194 387.829c12.201 0 22.127-9.926 22.127-22.126s-9.926-22.127-22.127-22.127-22.127 9.926-22.127 22.127 9.926 22.126 22.127 22.126zm0-29.253c3.93 0 7.127 3.197 7.127 7.127s-3.197 7.126-7.127 7.126-7.127-3.197-7.127-7.126 3.198-7.127 7.127-7.127z"/><path d="m311.194 324.131c12.201 0 22.127-9.926 22.127-22.126s-9.926-22.127-22.127-22.127-22.127 9.926-22.127 22.127 9.926 22.126 22.127 22.126zm0-29.253c3.93 0 7.127 3.197 7.127 7.127s-3.197 7.126-7.127 7.126-7.127-3.197-7.127-7.126 3.198-7.127 7.127-7.127z"/><path d="m95.605 430.137c-4.143 0-7.5 3.358-7.5 7.5s3.357 7.5 7.5 7.5h43.908c4.143 0 7.5-3.358 7.5-7.5s-3.357-7.5-7.5-7.5z"/></g></svg>